<svg xmlns="http://www.w3.org/2000/svg" viewBox="0 0 615.5 90.65"><defs><style>.cls-1{fill:#fff;}.cls-2{fill:#fdc209;}</style></defs><g id="Capa_2" data-name="Capa 2"><g id="Capa_1-2" data-name="Capa 1"><path class="cls-1" d="M24.11,45.23,42.24,90.65H19.44L0,45.23,19.44,0h22.8Z"/><path class="cls-1" d="M202.8,0a20.59,20.59,0,0,1,7.66,1.49A21.42,21.42,0,0,1,217.1,5.7a20.7,20.7,0,0,1,4.67,6.64,21.09,21.09,0,0,1,1.78,8.78V69.53a21.56,21.56,0,0,1-1.78,9,20.7,20.7,0,0,1-4.67,6.64,19.78,19.78,0,0,1-6.64,4.11,21.76,21.76,0,0,1-7.66,1.4H57.19V0ZM81.31,23.36V67.29H194.76a4,4,0,0,0,3.18-1.59,6.42,6.42,0,0,0,1.31-4.21V29.16a7.69,7.69,0,0,0-1-4.21A3.62,3.62,0,0,0,195,23.36Z"/><path class="cls-1" d="M409.33,90.65H385V28.78L325.22,82.62,265.41,28.78V90.65H241.3V0h25.42L325,53.46,383.73,0h25.6Z"/><path class="cls-2" d="M558.86,70.45V90.26h-132V70.45Z"/><path class="cls-1" d="M573.26,90.65l18.13-45.42L573.26,0h22.8L615.5,45.23,596.06,90.65Z"/></g></g></svg>