<svg xmlns="http://www.w3.org/2000/svg" viewBox="0 0 615.66 91"><defs><style>.cls-1{fill:#2f292b;}.cls-2{fill:#87bd37;}</style></defs><g id="Capa_2" data-name="Capa 2"><g id="Capa_1-2" data-name="Capa 1"><path class="cls-1" d="M24.2,45.41,42.4,91H19.51L0,45.41,19.51,0H42.4Z"/><path class="cls-1" d="M203.06,0a20.36,20.36,0,0,1,7.65,1.5,21.18,21.18,0,0,1,6.62,4.22A20.87,20.87,0,0,1,222,12.38a21.31,21.31,0,0,1,1.77,8.82V69.8a21.71,21.71,0,0,1-1.77,9,20.65,20.65,0,0,1-4.66,6.66,19.75,19.75,0,0,1-6.62,4.13A21.49,21.49,0,0,1,203.06,91H57.76V0ZM81.76,23V67H195.27a4,4,0,0,0,3.18-1.59,6.42,6.42,0,0,0,1.31-4.21V28.8a7.63,7.63,0,0,0-1-4.21A3.6,3.6,0,0,0,195.46,23Z"/><path class="cls-1" d="M409.76,91h-24V29.13L325.76,83l-60-53.83V91h-24V0h25.42l58.3,53.66L384.16,0h25.6Z"/><path class="cls-2" d="M558.76,70V90h-132V70Z"/><path class="cls-1" d="M573.26,91l18.2-45.59L573.26,0h22.89l19.51,45.41L596.15,91Z"/></g></g></svg>